<svg version="1.1" xmlns="http://www.w3.org/2000/svg" style="display: block;" viewBox="0 0 2045 2048" width="597" height="598" preserveAspectRatio="none">
<path transform="translate(0,0)" fill="rgb(0,0,0)" d="M 0 0 L 2045 0 L 2045 2048 L 0 2048 L 0 0 z"/>
<path transform="translate(0,0)" fill="rgb(254,254,254)" d="M 893.744 686.437 C 902.863 685.512 920.939 685.957 930.624 685.955 L 999.035 685.99 C 974.168 729.906 945.937 779.661 919.744 822.137 C 916.999 821.908 914.247 821.761 911.492 821.696 C 891.711 821.421 874.195 826.648 860.008 840.809 C 847.159 853.638 839.931 871.044 839.911 889.201 C 840.049 915.164 856.624 939.828 880.962 949.169 C 905.633 958.638 973.905 954.847 1003.19 954.827 L 1335.06 954.819 L 1424.4 954.735 C 1450.25 954.704 1478.14 953.271 1503.23 958.542 C 1540.63 966.48 1575.02 984.86 1602.4 1011.55 C 1642.1 1050.72 1664.34 1104.24 1664.08 1160.01 C 1663.77 1212.89 1642.58 1263.52 1605.13 1300.85 C 1578.25 1327.52 1543.11 1347.93 1506.08 1356.32 C 1481 1362 1452.63 1360.81 1426.75 1360.81 L 1342.54 1360.79 L 1028.5 1360.77 L 920.925 1360.73 C 930.37 1347.25 945.696 1318.97 954.248 1303.9 C 969.421 1277.64 984.4 1251.27 999.182 1224.8 L 1302.94 1224.94 L 1406.27 1224.96 C 1425.29 1225 1444.71 1225.27 1463.7 1224.83 C 1481.82 1224.4 1499.72 1217.26 1512.04 1203.54 C 1524.1 1189.92 1530.16 1172.01 1528.85 1153.86 C 1527.07 1127.75 1510.75 1104.27 1486.02 1095.02 C 1465.06 1087.18 1395.68 1090.7 1369.14 1090.7 L 1038.61 1090.7 L 945.56 1090.75 C 921.663 1090.75 892.637 1091.68 869.471 1087.22 C 833.978 1080.51 800.91 1064.47 773.656 1040.76 C 733.698 1005.72 709.298 956.237 705.824 903.202 C 701.889 848.383 720.071 794.27 756.309 752.95 C 791.283 713.16 840.84 689.177 893.744 686.437 z"/>
<path transform="translate(0,0)" fill="rgb(254,254,254)" d="M 313.301 686.34 C 363.713 685.096 417.854 686.007 468.565 686.004 C 479.454 707.511 497.023 735.409 509.403 757.08 L 607.65 927.238 L 715.794 1113.77 C 734.358 1145.86 753.654 1181.79 773.346 1212.75 C 787.222 1190.11 801.842 1162.35 815.185 1138.98 C 868.581 1155.98 904.216 1158.32 960.211 1156.02 C 944.752 1184.81 928.652 1213.25 911.923 1241.32 C 890.874 1277.55 861.648 1324.23 843.437 1360.73 C 796.934 1360.71 748.736 1361.5 702.405 1360.47 C 692.962 1341.28 674.693 1311.81 663.244 1292.27 L 597.785 1179.92 L 399.671 837.373 L 340.976 734.97 C 334.202 723.146 318.46 697.699 313.301 686.34 z"/>
<path transform="translate(0,0)" fill="rgb(254,254,254)" d="M 1077.33 686.129 L 1665.19 686.03 C 1640.95 728.291 1608.94 778.808 1587.26 821.117 L 1478.5 821.097 L 1153.41 821.358 C 1142.81 838.796 1122.65 871.301 1114.22 888.823 L 959.123 888.603 C 970.811 871.299 989.855 836.553 1000.68 817.815 L 1077.33 686.129 z"/>
</svg>
